<?xml version="1.0" encoding="UTF-8" standalone="no"?>
<svg
   version="1"
   width="666.667"
   height="666.667"
   viewBox="0 0 500.000000 500.000000"
   id="svg4"
   sodipodi:docname="nitter.svg"
   inkscape:version="1.2.1 (9c6d41e410, 2022-07-14, custom)"
   xmlns:inkscape="http://www.inkscape.org/namespaces/inkscape"
   xmlns:sodipodi="http://sodipodi.sourceforge.net/DTD/sodipodi-0.dtd"
   xmlns="http://www.w3.org/2000/svg"
   xmlns:svg="http://www.w3.org/2000/svg">
  <defs
     id="defs8" />
  <sodipodi:namedview
     id="namedview6"
     pagecolor="#ffffff"
     bordercolor="#000000"
     borderopacity="0.25"
     inkscape:showpageshadow="2"
     inkscape:pageopacity="0.0"
     inkscape:pagecheckerboard="0"
     inkscape:deskcolor="#d1d1d1"
     showgrid="false"
     inkscape:zoom="1.2104994"
     inkscape:cx="177.61264"
     inkscape:cy="334.1596"
     inkscape:window-width="1920"
     inkscape:window-height="1020"
     inkscape:window-x="0"
     inkscape:window-y="0"
     inkscape:window-maximized="1"
     inkscape:current-layer="svg4" />
  <path
     d="m 56.39238,12.490425 -2.853627,2.963382 V 484.54619 l 2.853627,2.96338 2.963382,2.85363 h 95.925768 l 2.96338,-2.85363 2.85363,-2.96338 V 348.66964 c 0,-112.60851 0.21951,-135.9863 1.42682,-135.9863 0.87803,0 45.10925,61.57249 98.45013,136.86434 53.23112,75.40161 97.90136,137.85214 99.21842,138.83993 2.08534,1.75608 6.03651,1.97559 41.37759,1.97559 h 39.07274 l 2.96338,-2.85363 2.85363,-2.96338 V 15.453807 l -2.85363,-2.963382 -2.96338,-2.8536268 h -95.92577 l -2.96338,2.8536268 -2.85363,2.963382 V 151.33036 c 0,112.60851 -0.21951,135.9863 -1.42682,135.9863 -0.87803,0 -45.10925,-61.57249 -98.45013,-136.9741 C 185.79339,75.050711 141.12315,12.60018 139.80609,11.612386 137.72075,9.856308 133.76958,9.6367982 98.428502,9.6367982 H 59.355762 Z M 230.79289,173.93986 c 56.19451,79.35279 103.60862,146.08376 105.47445,148.05935 3.18289,3.4024 3.95118,3.73166 9.9877,3.73166 5.70725,0 7.02431,-0.43902 9.54867,-2.85363 l 2.85363,-2.96338 V 29.392678 h 68.04803 V 470.60732 l -27.65823,-0.10975 H 371.27915 L 269.20711,326.06014 C 213.12236,246.70735 165.59849,179.97638 163.73266,178.00079 c -3.18289,-3.4024 -3.95118,-3.73166 -9.9877,-3.73166 -5.70725,0 -7.02431,0.43902 -9.54867,2.85363 l -2.85363,2.96338 V 470.60732 H 73.294632 V 29.392678 l 27.767988,0.109755 h 27.65823 z"
     id="path2"
     style="stroke:#000000;stroke-width:16.4632;stroke-dasharray:none;stroke-opacity:1" />
</svg>
